# xmcd
#
# Track frame offsets: 
#        182
#        11275
#        26390
#        42492
#        55760
#        74755
#        87525
#        102680
#        118145
#        133485
#        147895
#        163052
#        177542
#        190137
#        205232
#        219805
#
# Disc length: 3123 seconds
#
# Revision: 3
# Processed by: cddbd v1.5.2PL0 Copyright (c) Steve Scherf et al.
# Submitted via: ExactAudioCopyFreeDBPlugin 1.0
#
DISCID=f50c3110
DTITLE=Various Artist - Trucker Hit Rallye [CD 1)
DYEAR=1900
DGENRE=Country
TTITLE0=Tom Astor - Ein paar Narben auf der Seele
TTITLE1=Gunter Gabriel - Truck Stop, Tom Astor und ich
TTITLE2=Gudrun Lange and Kactus - So lang ich dich noch fühle
TTITLE3=Tom Astor - Ja , dann gibt's Chaos
TTITLE4=Nashville Music Company - Wenn die Räder sich dreh'n
TTITLE5=Tom Astor - Gib mir die Antwort
TTITLE6=Jonny Hill - Heute schon gelebt
TTITLE7=Tom Astor - Ein Lied für Louise
TTITLE8=Gunter Gabriel - Harry und Oskar
TTITLE9=Tom Astor - Den Kindern geht's gut
TTITLE10=Dagmar, The Lady of Country - Wir sind immer gut drauf
TTITLE11=Tom Astor - Lieber Herr Verkehrsminister
TTITLE12=D'r Drüjje Pitter - Weiss de wat
TTITLE13=Tom Astor - Ich bin doch noch kein altes Eisen
TTITLE14=Wanda Jackson - Santo Domingo 94
TTITLE15=Tom Astor - Wie im Groschenroman
EXTD=
EXTT0=
EXTT1=
EXTT2=
EXTT3=
EXTT4=
EXTT5=
EXTT6=
EXTT7=
EXTT8=
EXTT9=
EXTT10=
EXTT11=
EXTT12=
EXTT13=
EXTT14=
EXTT15=
PLAYORDER=
